<svg height="506pt" preserveAspectRatio="xMidYMid meet" viewBox="0 0 1063 506" width="1063pt" xmlns="http://www.w3.org/2000/svg"><g transform="matrix(.1 0 0 -.1 0 506)"><path d="m3552 3408c-12-16-151-436-191-582-36-126-40-214-15-310 58-227 262-386 494-386 143 0 249 42 355 141 206 194 216 508 21 717-102 108-197 152-355 161l-103 6-15 45c-16 48-88 165-122 199-24 24-54 27-69 9zm78-208c31-60 25-94-34-215-60-121-155-287-156-269 0 28 156 524 165 524 3 0 14-18 25-40zm302-184c118-28 210-105 265-222 24-51 28-71 28-154 0-85-3-102-31-160-56-119-161-198-292-221-176-31-364 79-423 249-10 30-5 41 96 217 58 102 117 210 130 239 21 48 28 55 57 59 68 8 115 6 170-7z"/><path d="m1307 3150c-98-25-171-91-200-181-34-103-13-192 60-261 49-45 83-64 214-118 144-58 199-110 199-185 0-70-80-147-166-160-95-14-214 50-248 135l-16 40-51-19c-28-11-54-22-56-25-3-3 6-30 21-60 54-110 194-195 322-196 68 0 160 38 218 91 119 108 127 268 20 375-47 47-116 85-244 135-152 58-199 131-148 229 31 60 74 84 152 84 75 0 128-25 180-85l36-43 42 31c23 17 44 36 46 42s-23 38-56 70c-90 88-218 127-325 101z"/><path d="m2160 2645v-506l58 3 57 3 3 213 2 212h235 235l2-212 3-213 58-3 57-3v506 505h-60-60v-230-230h-235-235v230 230h-60-60z"/><path d="m4820 2645v-506l58 3 57 3 3 223 2 222h196 195l-3 58-3 57-192 3-193 2v160 160h235 235v60 60h-295-295z"/><path d="m5880 2645v-506l58 3 57 3 3 198 2 197h83 83l114-200 115-200h68c37 0 67 3 67 6s-52 95-116 205-115 201-113 203c2 1 25 14 50 29 57 33 95 75 127 145 20 45 23 65 20 130-6 125-65 214-177 266-41 19-67 21-243 24l-198 4zm396 366c23-10 54-36 70-57 26-33 29-46 29-109s-3-76-29-109c-46-61-91-76-228-76h-118v185 185h118c93 0 126-4 158-19z"/><path d="m6980 2645v-506l58 3 57 3v500 500l-57 3-58 3z"/><path d="m7910 3127c-166-57-277-165-332-326-31-90-31-239 1-325 78-218 290-358 516-343 165 10 314 90 403 214l22 32-44 30c-25 17-48 31-53 31-4 0-17-14-28-31-28-44-125-114-188-136-36-12-81-18-147-18-88 0-101 3-162 33-85 41-167 128-199 209-17 44-23 79-23 148-1 81 2 97 31 158 39 82 106 150 189 192 55 28 67 30 169 30 104 0 114-2 180-33 49-23 87-51 126-92l55-59 47 33 47 34-40 51c-128 161-376 235-570 168z"/><path d="m9152 3098c-11-29-97-255-191-502s-171-450-171-452 28-4 63-4h62l59 155 58 155 185-2 185-3 57-150 58-150 62-3c33-2 61 1 61 5s-86 232-191 506l-192 497h-43c-42 0-43 0-62-52zm133-351c36-93 65-170 65-173 0-2-61-4-136-4-126 0-136 1-129 18 4 9 31 80 60 157s57 148 60 158c4 10 9 16 11 15 2-2 32-79 69-171z"/></g></svg>